HIERARCHY
ROOT Hips
{
	OFFSET -3.958830 18.904000 13.208200
	CHANNELS 6 Xposition Yposition Zposition Zrotation Yrotation Xrotation 
	JOINT LHipJoint
	{
		OFFSET 0.000000 0.000000 0.000000
		CHANNELS 3 Zrotation Yrotation Xrotation
		JOINT LeftUpLeg
		{
			OFFSET 1.800000 -1.400000 0.085000
			CHANNELS 3 Zrotation Yrotation Xrotation
			JOINT LeftLeg
			{
				OFFSET 2.215000 -6.000000 0.000000
				CHANNELS 3 Zrotation Yrotation Xrotation
				JOINT LeftFoot
				{
					OFFSET 2.500000 -6.900000 0.000000
					CHANNELS 3 Zrotation Yrotation Xrotation
					JOINT LeftToeBase
					{
						OFFSET 0.200000 -0.500000 1.950000
						CHANNELS 3 Zrotation Yrotation Xrotation
						End Site
						{
							OFFSET 0.000000 0.000000 0.000000
						}
					}
				}
			}
		}
	}
	JOINT RHipJoint
	{
		OFFSET 0.000000 0.000000 0.000000
		CHANNELS 3 Zrotation Yrotation Xrotation
		JOINT RightUpLeg
		{
			OFFSET -1.800000 -1.400000 0.085000
			CHANNELS 3 Zrotation Yrotation Xrotation
			JOINT RightLeg
			{
				OFFSET -2.215000 -6.000000 0.000000
				CHANNELS 3 Zrotation Yrotation Xrotation
				JOINT RightFoot
				{
					OFFSET -2.500000 -6.900000 0.000000
					CHANNELS 3 Zrotation Yrotation Xrotation
					JOINT RightToeBase
					{
						OFFSET -0.200000 -0.500000 1.950000
						CHANNELS 3 Zrotation Yrotation Xrotation
						End Site
						{
							OFFSET 0.000000 0.000000 0.000000
						}
					}
				}
			}
		}
	}
	JOINT LowerBack
	{
		OFFSET 0.000000 0.000000 0.000000
		CHANNELS 3 Zrotation Yrotation Xrotation
		JOINT Spine
		{
			OFFSET -0.087000 1.940000 -0.288900
			CHANNELS 3 Zrotation Yrotation Xrotation
			JOINT Spine1
			{
				OFFSET 0.000000 1.950000 0.060000
				CHANNELS 3 Zrotation Yrotation Xrotation
				JOINT Neck
				{
					OFFSET 0.000000 0.000000 0.000000
					CHANNELS 3 Zrotation Yrotation Xrotation
					JOINT Neck1
					{
						OFFSET 0.000000 1.600000 0.340000
						CHANNELS 3 Zrotation Yrotation Xrotation
						JOINT Head
						{
							OFFSET 0.000000 1.667000 -0.240000
							CHANNELS 3 Zrotation Yrotation Xrotation
							End Site
							{
								OFFSET 0.000000 0.000000 0.000000
							}
						}
					}
				}
				JOINT LeftShoulder
				{
					OFFSET 0.000000 0.000000 0.000000
					CHANNELS 3 Zrotation Yrotation Xrotation
					JOINT LeftArm
					{
						OFFSET 2.700000 1.550000 -0.730000
						CHANNELS 3 Zrotation Yrotation Xrotation
						JOINT LeftForeArm
						{
							OFFSET 5.450000 0.000000 0.000000
							CHANNELS 3 Zrotation Yrotation Xrotation
							JOINT LeftHand
							{
								OFFSET 3.450000 0.000000 0.000000
								CHANNELS 3 Zrotation Yrotation Xrotation
								JOINT LeftHandIndex1
								{
									OFFSET 0.750000 0.000000 0.000000
									CHANNELS 3 Zrotation Yrotation Xrotation
									End Site
									{
										OFFSET 0.000000 0.000000 0.000000
									}
								}
							}
						}
					}
				}
				JOINT RightShoulder
				{
					OFFSET 0.000000 0.000000 0.000000
					CHANNELS 3 Zrotation Yrotation Xrotation
					JOINT RightArm
					{
						OFFSET -2.700000 1.550000 -0.730000
						CHANNELS 3 Zrotation Yrotation Xrotation
						JOINT RightForeArm
						{
							OFFSET -5.450000 0.000000 0.000000
							CHANNELS 3 Zrotation Yrotation Xrotation
							JOINT RightHand
							{
								OFFSET -3.450000 0.000000 0.000000
								CHANNELS 3 Zrotation Yrotation Xrotation
								JOINT RightHandIndex1
								{
									OFFSET -0.750000 0.000000 0.000000
									CHANNELS 3 Zrotation Yrotation Xrotation
									End Site
									{
										OFFSET 0.000000 0.000000 0.000000
									}
								}
							}
						}
					}
				}
			}
		}
	}
}
MOTION
Frames: 13
Frame Time: 0.016667
0.009780 16.850110 -1.253290 -3.928525 1.372426 7.260924 -15.009871 14.031942 3.369330 12.574944 -1.200650 -10.502574 -6.249169 4.572239 4.481621 -0.224952 3.794193 3.364938 0.533160 0.108280 0.662350 18.075172 -10.965726 2.829539 -9.173439 0.666903 -10.155682 4.644371 -3.955599 7.201695 -0.310065 -2.987174 3.391253 -0.089880 -0.006370 0.227090 -3.558723 -2.779836 -8.275075 14.312358 -1.727429 9.894819 -5.370874 0.735283 -12.836384 3.810639 -3.027071 -11.563447 -8.655432 3.709512 43.391860 -3.599610 3.782450 -7.194200 -11.438933 1.864343 1.954135 -3.103482 13.300532 -0.139653 12.584636 -1.669437 -0.022911 -3.697958 2.870003 0.626440 -0.097510 0.143040 0.135410 3.697604 3.203044 7.118916 10.582330 -1.819701 -1.884670 -17.402595 -13.111047 2.833328 3.086555 -1.365289 -0.060640 -0.031730 -0.268240 -0.201790 
0.005900 16.847370 -1.257710 -3.887937 1.369510 7.174497 -15.008511 13.999026 3.357854 12.577827 -1.180737 -10.348604 -6.268856 4.565185 4.397592 -0.209079 3.780332 3.367606 0.546320 0.133900 0.668580 18.081794 -10.976532 2.835210 -9.219650 0.623668 -9.988202 4.657606 -3.939223 6.996395 -0.319996 -3.001324 3.385826 -0.079320 -0.016550 0.223030 -3.568811 -2.700982 -8.265176 14.023269 -1.676204 9.778498 -5.212621 0.686365 -12.437793 3.724443 -3.030652 -11.501636 -8.639110 3.697470 43.502097 -3.465280 3.730080 -7.372910 -11.344606 1.882539 2.021756 -3.569863 13.229600 -0.210561 12.765367 -1.215285 0.018149 -3.693584 2.875001 0.616910 -0.104320 0.152050 0.140230 3.760064 3.156662 6.986262 10.683958 -1.431104 -1.886726 -17.749213 -14.243687 3.112209 3.113652 -1.379011 -0.049270 -0.032950 -0.282320 -0.194270 
0.004030 16.847430 -1.262870 -3.852178 1.258210 7.075028 -15.001332 13.978288 3.347994 12.519457 -1.160151 -10.173923 -6.240126 4.549173 4.323253 -0.183410 3.762734 3.379779 0.560190 0.158070 0.674170 18.090881 -10.990951 2.839632 -9.311714 0.595931 -9.904284 4.687292 -3.930416 6.889859 -0.329470 -3.011125 3.385165 -0.071610 -0.019890 0.221880 -3.589049 -2.634759 -8.257016 13.906672 -1.621151 9.707309 -5.225653 0.672804 -12.101176 3.653648 -3.105322 -11.545848 -8.798417 3.743564 43.709241 -3.220390 3.611020 -7.214420 -11.493683 1.707715 2.151673 -3.743766 13.420272 -0.228201 12.986704 -0.732011 0.076331 -3.685621 2.881111 0.604320 -0.108110 0.162030 0.153030 4.033867 3.386227 6.976558 10.306869 -1.255665 -1.841279 -17.535012 -15.571920 3.358371 3.146677 -1.386354 -0.035920 -0.032370 -0.302150 -0.181500 
0.004010 16.848140 -1.266870 -3.850057 1.122961 7.016526 -14.998659 13.977895 3.346059 12.496283 -1.145253 -10.076502 -6.206154 4.542167 4.296476 -0.179488 3.759534 3.382166 0.563370 0.165830 0.672020 18.092808 -10.997662 2.839793 -9.347826 0.586671 -9.876876 4.673195 -3.927226 6.895842 -0.330620 -3.013969 3.384297 -0.066800 -0.018990 0.218900 -3.592357 -2.619665 -8.255513 13.836025 -1.569520 9.735497 -5.233366 0.698016 -12.078905 3.622733 -3.237988 -11.550067 -9.097331 3.856963 43.909524 -3.032460 3.510920 -7.133990 -11.560932 1.756749 2.136893 -3.750798 13.402720 -0.210886 12.928509 -0.260674 0.103272 -3.686320 2.876801 0.602180 -0.109840 0.163580 0.156860 4.173028 3.453646 6.975060 9.769329 -1.229702 -1.767209 -16.840443 -16.291009 3.399726 3.161791 -1.375966 -0.035100 -0.029280 -0.306040 -0.176950 
0.004430 16.849710 -1.272180 -3.901348 0.941930 6.940688 -14.999239 13.987292 3.350919 12.563365 -1.130696 -10.029549 -6.250399 4.561877 4.314919 -0.175663 3.765767 3.379358 0.571710 0.177770 0.672050 18.090570 -10.997005 2.833568 -9.355287 0.590766 -9.912562 4.687114 -3.937192 7.037097 -0.329789 -3.011579 3.387313 -0.059720 -0.020820 0.213720 -3.584245 -2.637398 -8.255475 13.812265 -1.564538 9.887584 -5.217734 0.703795 -12.115876 3.629914 -3.435860 -11.553993 -9.502530 4.067851 43.955342 -2.765050 3.471920 -7.124770 -11.599038 1.913314 2.103036 -3.951122 13.455871 -0.206708 13.182919 0.223430 0.163851 -3.684138 2.878277 0.601630 -0.113400 0.163810 0.162390 4.226412 3.480940 6.977422 8.892128 -1.193735 -1.637515 -15.276929 -16.735879 3.206798 3.173075 -1.353459 -0.034260 -0.028040 -0.313000 -0.174470 
0.004380 16.852750 -1.275590 -3.933846 0.736241 6.941023 -14.997200 14.006319 3.356452 12.567663 -1.120595 -10.071629 -6.225622 4.569372 4.374001 -0.189026 3.763256 3.377926 0.564270 0.176100 0.656700 18.087843 -10.999098 2.831043 -9.349392 0.617748 -10.046095 4.699987 -3.948919 7.207355 -0.322082 -3.001028 3.392937 -0.057180 -0.015010 0.202350 -3.578621 -2.663398 -8.259714 13.825717 -1.566546 10.048762 -5.270805 0.730713 -12.434531 3.625178 -3.665614 -11.562619 -9.972586 4.353066 44.092223 -2.521730 3.487300 -7.158530 -11.440345 2.195689 2.047392 -4.205769 13.529776 -0.204755 13.328697 0.540367 0.207208 -3.687065 2.866129 0.608140 -0.114850 0.157220 0.161230 4.100386 3.438100 6.952597 8.499428 -1.026616 -1.579053 -14.572086 -16.955672 3.128739 3.172937 -1.332579 -0.045010 -0.018560 -0.304070 -0.174670 
0.005330 16.856220 -1.279080 -4.053880 0.647827 6.875674 -14.982830 14.019573 3.355189 12.691009 -1.115827 -10.141360 -6.230070 4.599298 4.543559 -0.186147 3.770118 3.376334 0.572470 0.181040 0.657620 18.098574 -11.006317 2.829745 -9.238642 0.628131 -10.069321 4.665353 -3.955632 7.371998 -0.324691 -2.993500 3.398905 -0.055340 -0.014260 0.204210 -3.612627 -2.670595 -8.255308 14.161804 -1.649349 10.178896 -5.580227 0.708055 -12.591441 3.575170 -3.884236 -11.632998 -10.447020 4.582184 44.318121 -2.152460 3.370330 -7.087540 -11.324718 2.278883 2.085187 -4.256838 13.760027 -0.194715 13.327502 0.790310 0.230683 -3.681006 2.865456 0.613400 -0.118500 0.161030 0.169670 4.050292 3.554693 6.984941 8.341875 -0.934805 -1.552517 -14.200667 -17.537737 3.198309 3.183548 -1.328275 -0.043310 -0.017770 -0.310800 -0.172120 
0.008090 16.857090 -1.281530 -4.189075 0.594161 6.795199 -14.967173 14.025192 3.354225 12.857093 -1.101478 -10.221514 -6.355231 4.663472 4.742696 -0.180800 3.780423 3.368171 0.578780 0.189880 0.655980 18.113705 -11.010718 2.822751 -9.108446 0.626270 -10.048379 4.573087 -3.952321 7.538477 -0.326295 -2.983739 3.404367 -0.053000 -0.019040 0.197380 -3.655803 -2.674686 -8.240736 14.590032 -1.738748 10.259578 -5.900343 0.680752 -12.569556 3.507333 -4.162034 -11.737451 -11.037828 4.868912 44.399041 -1.675200 3.276560 -7.163910 -11.075051 2.324002 2.180000 -4.590544 13.943081 -0.237143 13.363257 1.158848 0.268797 -3.671612 2.867046 0.616830 -0.127940 0.163000 0.172920 3.904151 3.731404 7.047433 8.378930 -0.883918 -1.557265 -14.002542 -18.305665 3.343639 3.201452 -1.324952 -0.041000 -0.017240 -0.315510 -0.169790 
0.012460 16.858430 -1.283440 -4.259296 0.614622 6.766033 -14.955564 14.036405 3.348876 12.887391 -1.092945 -10.343897 -6.360836 4.694494 4.948456 -0.183510 3.774731 3.366906 0.576780 0.192840 0.642250 18.123391 -11.018422 2.819181 -9.036007 0.629189 -10.051196 4.490840 -3.951359 7.660291 -0.325351 -2.980857 3.407893 -0.053370 -0.014540 0.193500 -3.687398 -2.679446 -8.227336 14.906567 -1.819360 10.283199 -6.124615 0.647583 -12.638012 3.457406 -4.422306 -11.821707 -11.574107 5.128830 44.482321 -1.373730 3.209550 -7.099180 -10.765679 2.424891 2.264035 -5.043926 14.148280 -0.289933 13.482142 1.337776 0.301941 -3.669279 2.868542 0.618600 -0.130430 0.160690 0.176890 3.669039 3.869673 7.067393 8.502004 -0.653225 -1.582750 -14.162181 -19.237583 3.595348 3.217392 -1.326775 -0.041250 -0.014670 -0.311840 -0.164520 
0.012670 16.858800 -1.282870 -4.226887 0.593724 6.819203 -14.943879 14.031955 3.351291 12.849380 -1.103237 -10.444772 -6.422489 4.707926 5.023308 -0.190043 3.771045 3.370258 0.578110 0.191330 0.640510 18.131988 -11.034043 2.817605 -9.055014 0.649840 -10.153852 4.413410 -3.940100 7.751946 -0.321815 -2.971601 3.413942 -0.051960 -0.010540 0.187360 -3.715802 -2.645323 -8.222672 14.997352 -1.818202 10.229981 -6.325047 0.655167 -12.867494 3.365642 -4.584653 -11.861248 -11.900329 5.318557 44.626382 -1.052250 3.140650 -6.970590 -10.449857 2.558120 2.314113 -5.237271 14.307656 -0.304019 13.633943 1.451485 0.331536 -3.665912 2.862602 0.624960 -0.132900 0.157660 0.180860 3.506445 3.902909 7.035929 8.807368 -0.414933 -1.631597 -14.927872 -19.990063 3.943369 3.228335 -1.337033 -0.048340 -0.008980 -0.313440 -0.165120 
0.013020 16.859340 -1.282800 -4.166284 0.589026 6.798400 -14.934106 14.029586 3.346596 12.781420 -1.098015 -10.482974 -6.432685 4.721434 5.150733 -0.189877 3.765766 3.372814 0.574960 0.187740 0.635130 18.138384 -11.058775 2.813297 -9.111370 0.662241 -10.244891 4.323684 -3.943616 7.918259 -0.321608 -2.967125 3.413262 -0.055190 -0.007180 0.188940 -3.738494 -2.598219 -8.213739 14.975219 -1.779853 10.203227 -6.444691 0.694450 -12.849158 3.279535 -4.650410 -11.927851 -12.043442 5.400626 44.747288 -0.873990 3.096800 -6.897200 -10.329174 2.478959 2.432740 -5.278523 14.580562 -0.309096 13.645499 1.583783 0.342180 -3.664537 2.862706 0.627620 -0.134400 0.159440 0.183290 3.538225 4.040323 7.038247 9.300191 -0.382465 -1.771416 -16.577992 -20.497767 4.420678 3.234756 -1.362147 -0.048610 -0.007390 -0.311310 -0.162300 
0.015040 16.857500 -1.281800 -4.090124 0.655243 6.817020 -14.929772 14.034288 3.338553 12.684006 -1.098231 -10.597731 -6.392142 4.734471 5.330105 -0.188983 3.754217 3.379875 0.559810 0.178330 0.620920 18.138859 -11.078549 2.810306 -9.207305 0.677707 -10.368292 4.322387 -3.959338 8.085031 -0.313072 -2.966915 3.413801 -0.059800 0.005710 0.184810 -3.746920 -2.569944 -8.204528 14.886732 -1.784462 10.199572 -6.460805 0.677346 -12.922965 3.217036 -4.727757 -11.929710 -12.144631 5.460759 44.596641 -0.801670 3.098930 -6.656260 -10.231933 2.535649 2.490445 -5.330738 14.887046 -0.307134 13.818829 1.665601 0.377130 -3.673890 2.856453 0.618720 -0.127870 0.152790 0.181990 3.555872 4.059243 6.992504 9.310382 -0.267766 -1.827898 -17.331543 -20.847284 4.657584 3.241137 -1.368841 -0.052530 0.000410 -0.303210 -0.155960 
0.020280 16.856680 -1.279040 -4.079574 0.751211 6.884205 -14.923388 14.039395 3.331244 12.628903 -1.109891 -10.776805 -6.364968 4.751948 5.526291 -0.192246 3.746199 3.384923 0.550860 0.169160 0.609760 18.143017 -11.089605 2.808060 -9.235313 0.697409 -10.469542 4.296336 -3.962265 8.191935 -0.303186 -2.965608 3.420948 -0.063080 0.017340 0.180900 -3.764570 -2.557835 -8.192563 14.989921 -1.825548 10.169187 -6.570090 0.641560 -13.056985 3.166898 -4.835936 -11.921299 -12.293567 5.548535 44.335732 -0.657920 3.081470 -6.363690 -10.082970 2.691670 2.511515 -5.430696 15.237186 -0.315000 13.983551 1.546937 0.396790 -3.680100 2.855991 0.611930 -0.120680 0.142260 0.183590 3.483687 3.999901 6.963148 9.242389 -0.231540 -1.843001 -17.543616 -20.947845 4.722863 3.240349 -1.370487 -0.056990 0.005030 -0.297530 -0.153710 
